<?xml version="1.0" standalone="no"?>
<!DOCTYPE svg PUBLIC "-//W3C//DTD SVG 1.1//EN" "http://www.w3.org/Graphics/SVG/1.1/DTD/svg11.dtd">
<svg version="1.1" xmlns="http://www.w3.org/2000/svg" viewBox="0 0 419.6250428448575 285.5462132690827" width="839.250085689715" height="571.0924265381655"><!-- svg-source:excalidraw --><metadata></metadata><defs><style class="style-fonts">
      </style></defs><g transform="translate(48.55589859877705 162.05863316054229) rotate(316.44173620068085 2.3238204500855772 56.88023563054219)" stroke="none"><path fill="#1e1e1e" d="M 9.11,0 Q 9.11,0 8.76,7.92 8.40,15.85 8.27,23.19 8.14,30.54 7.85,42.31 7.55,54.09 7.71,61.66 7.87,69.24 8.52,74.97 9.18,80.69 9.92,85.11 10.66,89.52 11.81,95.61 12.96,101.69 13.91,107.25 14.86,112.82 14.74,114.47 14.62,116.13 13.98,117.66 13.34,119.19 12.25,120.44 11.15,121.68 9.72,122.52 8.28,123.35 6.65,123.68 5.03,124.01 3.38,123.80 1.73,123.59 0.24,122.87 -1.25,122.15 -2.43,120.99 -3.62,119.83 -4.37,118.35 -5.12,116.87 -5.36,115.23 -5.61,113.58 -5.31,111.95 -5.01,110.32 -4.21,108.86 -3.41,107.41 -2.19,106.29 -0.96,105.17 0.55,104.50 2.06,103.82 3.72,103.67 5.37,103.52 6.98,103.91 8.60,104.29 10.01,105.17 11.42,106.05 12.47,107.33 13.52,108.61 14.11,110.17 14.70,111.72 14.76,113.38 14.82,115.04 14.35,116.63 13.88,118.22 12.93,119.58 11.97,120.94 10.63,121.92 9.30,122.90 7.71,123.40 6.13,123.91 4.47,123.88 2.81,123.85 1.25,123.29 -0.31,122.74 -1.61,121.71 -2.91,120.68 -3.82,119.30 -4.73,117.91 -5.15,116.30 -5.56,114.69 -5.56,114.69 -5.56,114.70 -5.68,109.08 -5.79,103.47 -5.84,97.30 -5.88,91.12 -6.02,86.46 -6.16,81.80 -6.35,75.74 -6.55,69.69 -6.87,61.95 -7.19,54.21 -7.66,42.37 -8.14,30.54 -8.27,23.19 -8.40,15.85 -8.76,7.92 -9.11,0 -8.98,-1.09 -8.84,-2.18 -8.45,-3.20 -8.06,-4.23 -7.44,-5.13 -6.82,-6.04 -5.99,-6.77 -5.17,-7.49 -4.20,-8.01 -3.23,-8.52 -2.16,-8.78 -1.09,-9.04 0.00,-9.04 1.09,-9.04 2.16,-8.78 3.23,-8.52 4.20,-8.00 5.17,-7.49 5.99,-6.77 6.82,-6.04 7.44,-5.13 8.06,-4.23 8.45,-3.20 8.84,-2.17 8.98,-1.08 9.11,0.00 9.11,0.00 L 9.11,0 Z"></path></g><g transform="translate(312.5347745520978 162.2008293753929) rotate(43.55826379931916 -2.3238204500855772 56.88023563054219)" stroke="none"><path fill="#1e1e1e" d="M 9.11,0 Q 9.11,0 8.76,7.92 8.40,15.85 8.27,23.19 8.14,30.54 7.66,42.37 7.19,54.21 6.87,61.95 6.55,69.69 6.35,75.74 6.16,81.80 6.02,86.46 5.88,91.12 5.84,97.30 5.79,103.47 5.68,109.08 5.56,114.70 5.15,116.30 4.73,117.91 3.82,119.30 2.91,120.69 1.61,121.71 0.30,122.74 -1.25,123.30 -2.82,123.85 -4.48,123.88 -6.13,123.91 -7.72,123.40 -9.30,122.90 -10.64,121.92 -11.97,120.93 -12.93,119.58 -13.88,118.22 -14.35,116.62 -14.82,115.03 -14.76,113.37 -14.70,111.72 -14.11,110.16 -13.52,108.61 -12.47,107.33 -11.41,106.05 -10.00,105.17 -8.60,104.29 -6.98,103.90 -5.37,103.52 -3.71,103.67 -2.06,103.83 -0.54,104.50 0.96,105.17 2.19,106.29 3.41,107.41 4.21,108.87 5.02,110.32 5.31,111.95 5.61,113.59 5.36,115.23 5.12,116.87 4.37,118.35 3.62,119.83 2.43,120.99 1.24,122.15 -0.24,122.87 -1.74,123.60 -3.38,123.80 -5.03,124.01 -6.66,123.68 -8.28,123.35 -9.72,122.52 -11.16,121.68 -12.25,120.44 -13.35,119.19 -13.99,117.66 -14.63,116.12 -14.74,114.47 -14.86,112.81 -14.86,112.81 -14.86,112.82 -13.91,107.25 -12.96,101.69 -11.81,95.61 -10.66,89.52 -9.92,85.11 -9.18,80.69 -8.52,74.97 -7.87,69.24 -7.71,61.66 -7.55,54.09 -7.85,42.31 -8.14,30.54 -8.27,23.19 -8.40,15.85 -8.76,7.92 -9.11,0 -8.98,-1.09 -8.84,-2.18 -8.45,-3.20 -8.06,-4.23 -7.44,-5.13 -6.82,-6.04 -5.99,-6.77 -5.17,-7.49 -4.20,-8.01 -3.23,-8.52 -2.16,-8.78 -1.09,-9.04 0.00,-9.04 1.09,-9.04 2.16,-8.78 3.23,-8.52 4.20,-8.00 5.17,-7.49 5.99,-6.77 6.82,-6.04 7.44,-5.13 8.06,-4.23 8.45,-3.20 8.84,-2.17 8.98,-1.08 9.11,0.00 9.11,0.00 L 9.11,0 Z"></path></g><g transform="translate(48.894078967862015 231.67688132543117) rotate(316.44173620068085 29.50136149680816 18.35284501602132)" stroke="none"><path fill="#1e1e1e" d="M 7.00,-7.92 Q 7.00,-7.92 10.56,-4.85 14.12,-1.79 19.74,3.06 25.36,7.91 30.15,11.97 34.93,16.03 38.40,19.12 41.87,22.21 37.85,24.30 33.83,26.40 34.78,21.96 35.73,17.52 38.04,13.90 40.36,10.29 42.94,6.55 45.52,2.81 46.23,1.59 46.94,0.38 48.36,-1.35 49.78,-3.10 51.68,-4.30 53.58,-5.50 55.76,-6.03 57.95,-6.56 60.19,-6.36 62.43,-6.17 64.49,-5.27 66.55,-4.37 68.22,-2.85 69.88,-1.34 70.98,0.61 72.07,2.57 72.48,4.78 72.89,7.00 72.58,9.22 72.26,11.45 71.25,13.46 70.24,15.47 68.64,17.05 67.04,18.63 65.02,19.61 63.00,20.60 60.77,20.89 58.54,21.18 56.33,20.75 54.13,20.31 52.18,19.19 50.23,18.07 48.74,16.39 47.24,14.71 46.37,12.64 45.49,10.57 45.32,8.32 45.15,6.08 45.71,3.90 46.26,1.72 47.49,-0.15 48.71,-2.04 50.47,-3.44 52.23,-4.84 54.34,-5.60 56.46,-6.36 58.71,-6.41 60.96,-6.46 63.10,-5.79 65.25,-5.11 67.07,-3.79 68.88,-2.47 70.18,-0.63 71.49,1.19 72.13,3.34 72.78,5.50 72.71,7.74 72.63,9.99 71.84,12.10 71.06,14.20 71.06,14.20 71.06,14.20 70.09,15.82 69.12,17.45 66.35,21.12 63.57,24.79 60.62,28.64 57.67,32.49 54.34,36.99 51.02,41.50 47.64,44.11 44.26,46.71 34.64,43.13 25.03,39.54 22.07,36.35 19.11,33.16 14.51,28.65 9.91,24.14 4.93,19.19 -0.04,14.24 -3.52,11.08 -7.00,7.92 -7.84,6.96 -8.69,6.01 -9.28,4.88 -9.87,3.75 -10.18,2.52 -10.49,1.28 -10.49,0.01 -10.49,-1.26 -10.19,-2.50 -9.88,-3.73 -9.29,-4.86 -8.70,-5.99 -7.86,-6.95 -7.01,-7.90 -5.97,-8.62 -4.92,-9.35 -3.73,-9.80 -2.54,-10.26 -1.27,-10.41 -0.01,-10.57 1.25,-10.41 2.51,-10.26 3.71,-9.81 4.90,-9.36 5.95,-8.64 7.00,-7.91 7.00,-7.91 L 7.00,-7.92 Z"></path></g><g transform="translate(312.19659418301285 231.8190775402818) rotate(43.55826379931916 -29.50136149680816 18.35284501602132)" stroke="none"><path fill="#1e1e1e" d="M 7.00,7.92 Q 7.00,7.92 3.52,11.08 0.04,14.24 -4.93,19.19 -9.91,24.14 -14.51,28.65 -19.11,33.16 -22.07,36.35 -25.03,39.54 -34.64,43.13 -44.26,46.71 -47.64,44.11 -51.02,41.50 -54.34,36.99 -57.67,32.49 -60.62,28.64 -63.57,24.79 -66.35,21.12 -69.12,17.45 -70.09,15.82 -71.06,14.20 -71.84,12.09 -72.63,9.99 -72.71,7.74 -72.78,5.49 -72.13,3.34 -71.48,1.19 -70.18,-0.64 -68.88,-2.47 -67.06,-3.79 -65.24,-5.11 -63.10,-5.79 -60.95,-6.46 -58.70,-6.41 -56.46,-6.36 -54.34,-5.60 -52.23,-4.84 -50.47,-3.44 -48.70,-2.04 -47.48,-0.15 -46.26,1.73 -45.71,3.91 -45.15,6.09 -45.32,8.33 -45.49,10.57 -46.37,12.64 -47.25,14.71 -48.74,16.39 -50.23,18.08 -52.18,19.19 -54.13,20.31 -56.34,20.75 -58.54,21.18 -60.77,20.89 -63.00,20.60 -65.02,19.61 -67.04,18.62 -68.64,17.04 -70.24,15.46 -71.25,13.45 -72.26,11.44 -72.58,9.22 -72.89,6.99 -72.48,4.78 -72.07,2.57 -70.97,0.61 -69.88,-1.35 -68.21,-2.86 -66.55,-4.37 -64.49,-5.27 -62.43,-6.17 -60.19,-6.36 -57.95,-6.56 -55.76,-6.03 -53.57,-5.50 -51.67,-4.29 -49.77,-3.09 -48.35,-1.35 -46.94,0.39 -46.94,0.38 -46.94,0.38 -46.23,1.59 -45.52,2.81 -42.94,6.55 -40.36,10.29 -38.04,13.90 -35.73,17.52 -34.78,21.96 -33.83,26.40 -37.85,24.30 -41.87,22.21 -38.40,19.12 -34.93,16.03 -30.15,11.97 -25.36,7.91 -19.74,3.06 -14.12,-1.79 -10.56,-4.85 -7.00,-7.92 -5.95,-8.64 -4.90,-9.36 -3.70,-9.81 -2.51,-10.26 -1.25,-10.41 0.01,-10.57 1.27,-10.41 2.54,-10.26 3.73,-9.80 4.92,-9.35 5.97,-8.62 7.01,-7.90 7.86,-6.94 8.70,-5.99 9.29,-4.86 9.88,-3.73 10.19,-2.49 10.49,-1.26 10.49,0.01 10.49,1.28 10.18,2.52 9.87,3.76 9.28,4.88 8.69,6.01 7.84,6.96 7.00,7.92 7.00,7.92 L 7.00,7.92 Z"></path></g><g transform="translate(178.35396836461723 100.6144433542811) rotate(0 -1.489379703917166 82.35493538711842)" stroke="none"><path fill="#1e1e1e" d="M 8.78,0 Q 8.78,0 8.86,5.92 8.94,11.85 8.98,17.89 9.03,23.93 8.53,35.95 8.03,47.98 7.66,58.39 7.29,68.79 7.13,76.84 6.97,84.88 7.20,91.11 7.42,97.34 7.71,102.54 8.00,107.74 8.58,115.30 9.17,122.87 9.62,128.19 10.06,133.51 10.52,137.91 10.97,142.31 11.06,147.79 11.14,153.28 10.83,157.83 10.52,162.38 3.68,169.71 -3.15,177.04 -5.14,176.69 -7.13,176.33 -8.90,175.36 -10.66,174.39 -12.03,172.91 -13.40,171.42 -14.22,169.58 -15.04,167.74 -15.23,165.73 -15.42,163.72 -14.95,161.75 -14.49,159.79 -13.43,158.08 -12.36,156.36 -10.80,155.08 -9.25,153.80 -7.36,153.08 -5.48,152.36 -3.46,152.28 -1.45,152.20 0.48,152.76 2.42,153.33 4.07,154.49 5.72,155.65 6.92,157.27 8.12,158.89 8.74,160.81 9.35,162.74 9.32,164.75 9.29,166.77 8.62,168.67 7.95,170.58 6.70,172.16 5.46,173.75 3.77,174.86 2.09,175.97 0.13,176.48 -1.81,176.99 -3.82,176.85 -5.83,176.71 -7.70,175.94 -9.56,175.16 -11.08,173.84 -12.60,172.51 -13.61,170.76 -14.63,169.02 -15.03,167.04 -15.44,165.07 -15.19,163.06 -14.94,161.06 -14.07,159.24 -13.19,157.42 -11.78,155.98 -10.37,154.54 -8.58,153.62 -6.78,152.70 -4.79,152.40 -2.79,152.10 -2.79,152.10 -2.79,152.10 -7.69,152.04 -12.60,151.98 -11.78,147.15 -10.97,142.31 -10.52,137.91 -10.06,133.51 -9.62,128.19 -9.17,122.87 -8.58,115.30 -8.00,107.74 -7.71,102.54 -7.42,97.34 -7.20,91.11 -6.97,84.88 -7.13,76.84 -7.29,68.79 -7.66,58.39 -8.03,47.98 -8.53,35.95 -9.03,23.93 -8.98,17.89 -8.94,11.85 -8.86,5.92 -8.78,0 -8.65,-1.05 -8.52,-2.10 -8.15,-3.09 -7.77,-4.08 -7.17,-4.95 -6.57,-5.82 -5.78,-6.52 -4.98,-7.22 -4.05,-7.72 -3.11,-8.21 -2.08,-8.46 -1.05,-8.71 0.00,-8.71 1.05,-8.71 2.08,-8.46 3.11,-8.21 4.05,-7.72 4.99,-7.22 5.78,-6.52 6.57,-5.82 7.17,-4.95 7.77,-4.08 8.15,-3.09 8.52,-2.10 8.65,-1.05 8.78,0.00 8.78,0.00 L 8.78,0 Z"></path></g><g transform="translate(140.05701923522975 229.7344460244915) rotate(0 35.14353933282007 22.82583552745973)" stroke="none"><path fill="#1e1e1e" d="M 8.43,-5.51 Q 8.43,-5.51 11.22,-1.38 14.01,2.74 17.46,7.94 20.91,13.13 23.92,17.26 26.93,21.39 30.75,25.91 34.57,30.42 38.12,33.71 41.67,37.01 36.35,35.66 31.03,34.32 33.39,29.56 35.74,24.80 39.54,19.78 43.33,14.75 46.91,10.26 50.50,5.76 54.04,1.43 57.57,-2.89 58.63,-4.34 59.69,-5.80 61.24,-7.31 62.79,-8.81 64.74,-9.75 66.69,-10.68 68.84,-10.95 70.99,-11.21 73.11,-10.77 75.22,-10.33 77.09,-9.24 78.96,-8.15 80.38,-6.52 81.80,-4.89 82.63,-2.90 83.46,-0.90 83.60,1.25 83.75,3.41 83.20,5.50 82.65,7.59 81.46,9.40 80.27,11.20 78.56,12.54 76.86,13.87 74.82,14.58 72.78,15.30 70.62,15.33 68.45,15.36 66.40,14.70 64.34,14.03 62.60,12.75 60.86,11.46 59.62,9.69 58.38,7.91 57.78,5.84 57.17,3.76 57.26,1.60 57.35,-0.55 58.12,-2.57 58.90,-4.59 60.28,-6.26 61.65,-7.93 63.49,-9.06 65.33,-10.20 67.44,-10.70 69.54,-11.19 71.70,-10.98 73.85,-10.78 75.82,-9.90 77.80,-9.01 79.39,-7.55 80.98,-6.08 82.02,-4.18 83.05,-2.28 83.43,-0.15 83.81,1.96 83.49,4.10 83.17,6.24 82.18,8.17 81.19,10.09 81.19,10.09 81.19,10.09 77.18,14.63 73.18,19.16 69.98,22.75 66.78,26.34 63.25,30.72 59.71,35.10 55.50,40.20 51.29,45.30 46.88,49.87 42.47,54.44 37.36,55.98 32.26,57.52 27.99,54.56 23.72,51.60 20.54,47.54 17.36,43.48 13.91,38.28 10.47,33.07 7.51,28.79 4.56,24.51 0.72,19.22 -3.12,13.93 -5.78,9.72 -8.43,5.51 -8.97,4.42 -9.51,3.33 -9.77,2.14 -10.03,0.95 -10.00,-0.25 -9.97,-1.47 -9.64,-2.64 -9.32,-3.81 -8.73,-4.87 -8.14,-5.93 -7.31,-6.82 -6.48,-7.71 -5.47,-8.37 -4.45,-9.04 -3.30,-9.44 -2.15,-9.84 -0.95,-9.95 0.25,-10.07 1.46,-9.89 2.66,-9.72 3.78,-9.26 4.91,-8.80 5.89,-8.08 6.87,-7.36 7.65,-6.43 8.43,-5.51 8.43,-5.51 L 8.43,-5.51 Z"></path></g><g transform="translate(177.99981618746415 10) rotate(0 0 12.499631293623906)" stroke="none"><path fill="#1e1e1e" d="M 10.12,0 Q 10.12,0 10.30,3.31 10.48,6.63 10.80,11.19 11.12,15.76 11.40,20.38 11.67,24.99 11.37,26.86 11.06,28.72 10.18,30.39 9.29,32.06 7.92,33.36 6.55,34.66 4.83,35.45 3.12,36.25 1.24,36.45 -0.63,36.66 -2.47,36.25 -4.32,35.84 -5.94,34.87 -7.56,33.90 -8.78,32.46 -10.00,31.01 -10.70,29.26 -11.40,27.50 -11.50,25.62 -11.61,23.73 -11.10,21.91 -10.59,20.09 -9.53,18.52 -8.47,16.96 -6.97,15.82 -5.46,14.67 -3.67,14.07 -1.88,13.47 0.00,13.47 1.89,13.47 3.68,14.07 5.47,14.68 6.97,15.82 8.48,16.96 9.54,18.53 10.60,20.09 11.10,21.91 11.61,23.73 11.50,25.62 11.40,27.51 10.70,29.26 10.00,31.02 8.78,32.46 7.55,33.90 5.93,34.87 4.32,35.85 2.47,36.25 0.62,36.66 -1.24,36.45 -3.12,36.25 -4.84,35.45 -6.55,34.66 -7.92,33.36 -9.30,32.06 -10.18,30.39 -11.06,28.72 -11.37,26.86 -11.67,24.99 -11.67,24.99 -11.67,24.99 -11.40,20.38 -11.12,15.76 -10.80,11.19 -10.48,6.63 -10.30,3.31 -10.12,0 -9.97,-1.21 -9.83,-2.42 -9.39,-3.56 -8.96,-4.70 -8.27,-5.70 -7.57,-6.71 -6.66,-7.52 -5.75,-8.33 -4.67,-8.89 -3.58,-9.46 -2.40,-9.75 -1.21,-10.05 0.00,-10.05 1.22,-10.05 2.40,-9.75 3.59,-9.46 4.67,-8.89 5.75,-8.33 6.66,-7.52 7.57,-6.71 8.27,-5.70 8.96,-4.70 9.39,-3.56 9.83,-2.42 9.97,-1.21 10.12,0.00 10.12,0.00 L 10.12,0 Z"></path></g><g transform="translate(409.6250428448575 134.4869159691002) rotate(0 -0.08004809483588815 -0.08004809483600184)" stroke="none"><path fill="#1e1e1e" d="M 8.48,-2.64 Q 8.48,-2.64 8.60,-0.52 8.73,1.60 7.86,3.53 6.99,5.47 5.31,6.78 3.64,8.10 1.55,8.48 -0.53,8.86 -2.56,8.23 -4.59,7.60 -6.09,6.09 -7.60,4.59 -8.23,2.56 -8.86,0.53 -8.48,-1.55 -8.09,-3.64 -6.78,-5.31 -5.47,-6.99 -3.53,-7.86 -1.59,-8.73 0.52,-8.60 2.64,-8.47 4.46,-7.37 6.28,-6.27 7.38,-4.46 L 8.48,-2.64 Z"></path></g></svg>