<svg width="561" height="200" viewBox="0 0 561 200" fill="none" xmlns="http://www.w3.org/2000/svg">
<path d="M13.4026 159.008C5.57548 159.008 -3.2559e-06 153.969 -3.2559e-06 144.963V14.0459C-3.2559e-06 5.03933 5.57548 -4.7572e-05 13.4026 -4.7572e-05C21.2297 -4.7572e-05 26.698 5.03933 26.698 14.0459V90.1727H27.0196L71.6235 46.1049C75.0546 42.4594 77.9495 40.9583 82.0239 40.9583C88.6716 40.9583 93.711 45.9977 93.711 52.4309C93.711 56.3981 92.5316 58.8642 88.8861 62.2952L56.5054 92.9604L92.1027 137.457C94.8904 141.317 95.7482 143.676 95.7482 147.107C95.7482 154.076 90.4944 159.008 83.0961 159.008C77.8423 159.008 74.7329 157.186 70.873 151.61L36.7767 108.4L26.698 117.836V144.963C26.698 153.969 21.2297 159.008 13.4026 159.008ZM156.062 159.116C121.322 159.116 100.843 137.35 100.843 100.466C100.843 64.2252 121.751 40.8511 154.561 40.8511C185.655 40.8511 206.885 62.9386 206.885 93.8182C206.885 101.753 202.381 106.47 194.447 106.47H127.434V107.328C127.434 126.306 138.478 138.529 155.848 138.529C167.856 138.529 175.683 134.348 184.261 123.411C187.049 120.302 189.515 119.122 193.268 119.122C199.272 119.122 203.99 122.982 203.99 129.415C203.99 131.453 203.346 133.812 202.167 136.17C194.662 150.645 177.721 159.116 156.062 159.116ZM127.649 88.886H180.723C180.187 72.374 169.679 61.5447 154.668 61.5447C139.657 61.5447 128.721 72.5884 127.649 88.886ZM272.452 159.116C237.713 159.116 217.234 137.35 217.234 100.466C217.234 64.2252 238.142 40.8511 270.951 40.8511C302.045 40.8511 323.275 62.9386 323.275 93.8182C323.275 101.753 318.772 106.47 310.837 106.47H243.824V107.328C243.824 126.306 254.868 138.529 272.238 138.529C284.247 138.529 292.074 134.348 300.651 123.411C303.439 120.302 305.905 119.122 309.658 119.122C315.662 119.122 320.38 122.982 320.38 129.415C320.38 131.453 319.737 133.812 318.557 136.17C311.052 150.645 294.111 159.116 272.452 159.116ZM244.039 88.886H297.113C296.577 72.374 286.069 61.5447 271.059 61.5447C256.048 61.5447 245.111 72.5884 244.039 88.886ZM352.066 159.008C344.346 159.008 339.092 154.291 339.092 145.606V14.0459C339.092 5.03933 344.668 -4.7572e-05 352.495 -4.7572e-05C360.322 -4.7572e-05 365.79 5.03933 365.79 14.0459V62.7241H366.434C372.974 49.4288 385.841 41.28 402.031 41.28C430.659 41.28 448.886 63.6891 448.886 100.037C448.886 136.385 430.766 158.687 401.924 158.687C385.304 158.687 372.545 150.645 365.79 137.457H365.254V145.606C365.254 154.183 359.786 159.008 352.066 159.008ZM393.775 136.814C410.823 136.814 421.545 122.661 421.545 100.037C421.545 77.5206 410.823 63.2602 393.775 63.2602C377.263 63.2602 365.683 77.9495 365.683 100.037C365.683 122.339 377.263 136.814 393.775 136.814ZM477.248 199.109C465.24 199.109 458.699 194.606 458.699 186.457C458.699 180.989 462.559 177.45 468.778 177.45C471.03 177.45 472.102 177.558 474.568 177.558C480.572 177.558 486.791 174.448 490.758 164.477L492.688 158.901L455.483 61.0086C454.518 58.3281 453.982 55.5403 453.982 53.3959C453.982 46.1049 459.879 40.9583 467.706 40.9583C474.461 40.9583 478.213 43.9605 480.465 51.4659L507.592 134.133H508.021L535.148 51.3587C537.399 44.0677 541.259 40.9583 548.014 40.9583C555.627 40.9583 560.988 45.9977 560.988 53.0743C560.988 55.2187 560.452 58.2209 559.487 60.7942L522.067 160.938C511.774 189.245 499.979 199.109 477.248 199.109Z" fill="#FF8C17"/>
</svg>
